<?xml version="1.0" encoding="utf-8"?>
<!-- Generator: Adobe Illustrator 23.0.2, SVG Export Plug-In . SVG Version: 6.00 Build 0)  -->
<svg version="1.1" id="Capa_1" xmlns="http://www.w3.org/2000/svg" xmlns:xlink="http://www.w3.org/1999/xlink" x="0px" y="0px"
	 viewBox="0 0 74.58 74.28" style="enable-background:new 0 0 74.58 74.28;" xml:space="preserve">
<style type="text/css">
	.st0{fill-rule:evenodd;clip-rule:evenodd;fill:#57585A;}
</style>
<g>
	<polygon class="st0" points="26.96,24.71 24.64,24.71 24.64,23.79 23.05,23.79 23.05,24.71 20.7,24.71 20.7,25.62 26.96,25.62 	"/>
	<polygon class="st0" points="58.79,24.67 55.47,24.67 55.47,23.54 53.88,23.54 53.88,24.67 50.56,24.67 50.56,25.58 58.79,25.58 	
		"/>
	<path class="st0" d="M40,35.7c-4.96,0-9,4.04-9,9c0,4.96,4.04,9,9,9s9-4.04,9-9C49,39.74,44.96,35.7,40,35.7z M40,51.1
		c-3.53,0-6.4-2.87-6.4-6.4c0-3.53,2.87-6.4,6.4-6.4s6.4,2.87,6.4,6.4C46.4,48.23,43.53,51.1,40,51.1z"/>
	<path class="st0" d="M55.78,35.47l0.04-6.09H23.01v6.12l6.86-0.01l0.01,0.12l0.25,4.63c1.71-3.86,5.52-6.55,9.95-6.55
		c4.63,0,8.59,2.94,10.17,7.09l0.39-5.31L55.78,35.47z M30.77,33.9h-6.21v-3.1h6.21V33.9z M46.68,33.13c-0.51,0-0.92-0.41-0.92-0.92
		c0-0.51,0.41-0.92,0.92-0.92c0.51,0,0.92,0.41,0.92,0.92C47.6,32.72,47.19,33.13,46.68,33.13z M48.44,33.82v-3.1h6.21v3.1H48.44z"
		/>
	<path class="st0" d="M58.79,26.79l0-0.93h0v-0.02h-8.24v0.02h0.01l0,0.87h-3.96V22.5c0-0.47-0.66-0.85-1.46-0.85H33.17
		c-0.8,0-1.46,0.38-1.46,0.85v4.22h-4.04l-0.71-0.86h-6.32l-0.74,0.89l-1.35,0.03v26.82l2.72,0.15h9.31v0h0.25v0H31
		c2.27,2.4,5.48,3.9,9.04,3.9c3.56,0,6.77-1.5,9.04-3.9h0.21l0,0h0.25v0h7.62l2.68-0.11V26.83L58.79,26.79z M33.8,23.47h10.68v3.24
		H33.8V23.47z M40.07,55.9c-6.03,0-10.92-4.97-10.92-11.1c0-1.42,0.26-2.77,0.74-4.01l-0.27-5.04l-6.87,0.01v-6.63h33.32l-0.04,6.59
		l-5.16,0.01l-0.42,5.65c0.34,1.08,0.53,2.23,0.53,3.42C50.99,50.93,46.1,55.9,40.07,55.9z M58.55,51.23h-5.94v-2.65h5.94V51.23z
		 M58.59,47.33h-5.94v-1.94h5.94V47.33z"/>
</g>
</svg>
