<svg id="Icons" height="512" viewBox="0 0 74 74" width="512" xmlns="http://www.w3.org/2000/svg"><path d="m70.961 39.64h-.061a1 1 0 0 1 -.943-1.055c.03-.522.039-1.053.039-1.584s-.009-1.024-.029-1.531a1 1 0 0 1 .961-1.038.978.978 0 0 1 1.037.961c.025.531.035 1.064.035 1.607 0 .568-.01 1.138-.042 1.7a1 1 0 0 1 -.997.94z"/><path d="m37 72a34.386 34.386 0 0 1 -5.675-.464 35 35 0 0 1 5.675-69.536 34.386 34.386 0 0 1 5.675.464 35.048 35.048 0 0 1 27.08 22.173 31.98 31.98 0 0 1 1.054 3.295 1 1 0 0 1 -1.938.5 29.884 29.884 0 0 0 -.987-3.087 33.048 33.048 0 0 0 -25.535-20.9 32.448 32.448 0 0 0 -5.349-.445 33 33 0 0 0 -5.349 65.563 32.448 32.448 0 0 0 5.349.437 32.933 32.933 0 0 0 25.537-12.085 35.065 35.065 0 0 0 2.563-3.592 1 1 0 1 1 1.7 1.054 36.848 36.848 0 0 1 -2.714 3.8 34.926 34.926 0 0 1 -27.086 12.823z"/><path d="m69 49.53a1 1 0 0 1 -.94-1.342 28.108 28.108 0 0 0 .83-2.692 1 1 0 0 1 1.94.489c-.24.948-.539 1.919-.89 2.886a1 1 0 0 1 -.94.659z"/><path d="m43.928 50h-13.856a1 1 0 0 1 -.866-.5l-6.929-12a1 1 0 0 1 0-1l6.929-12a1 1 0 0 1 .866-.5h13.856a1 1 0 0 1 .866.5l6.929 12a1 1 0 0 1 0 1l-6.929 12a1 1 0 0 1 -.866.5zm-13.279-2h12.7l6.351-11-6.349-11h-12.7l-6.351 11z"/><path d="m30.069 26a1 1 0 0 1 -.865-1.5l12.44-21.55a1 1 0 0 1 1.732 1l-12.44 21.55a1 1 0 0 1 -.867.5z"/><path d="m23.141 38a1 1 0 0 1 -.867-.5l-12.45-21.549a1 1 0 1 1 1.732-1l12.45 21.549a1 1 0 0 1 -.865 1.5z"/><path d="m5.18 50.01a1 1 0 0 1 0-2l24.889-.01a1 1 0 0 1 0 2z"/><path d="m31.489 71.55a1 1 0 0 1 -.865-1.5l12.44-21.55a1 1 0 1 1 1.732 1l-12.44 21.55a1 1 0 0 1 -.867.5z"/><path d="m63.311 59.55a1 1 0 0 1 -.867-.5l-12.45-21.55a1 1 0 1 1 1.732-1l12.45 21.549a1 1 0 0 1 -.865 1.5z"/><path d="m43.93 26a1 1 0 0 1 0-2l24.889-.01a1 1 0 0 1 0 2l-24.888.01z"/></svg>