<?xml version="1.0" encoding="utf-8"?>
<!-- Generator: Adobe Illustrator 17.0.0, SVG Export Plug-In . SVG Version: 6.00 Build 0)  -->
<!DOCTYPE svg PUBLIC "-//W3C//DTD SVG 1.1//EN" "http://www.w3.org/Graphics/SVG/1.1/DTD/svg11.dtd">
<svg version="1.1" id="Capa_1" xmlns="http://www.w3.org/2000/svg" xmlns:xlink="http://www.w3.org/1999/xlink" x="0px" y="0px"
	 width="33.333px" height="34.688px" viewBox="0 0 33.333 34.688" enable-background="new 0 0 33.333 34.688" xml:space="preserve">
<g>
	<circle fill="#FFFFFF" cx="16.667" cy="17.344" r="14.621"/>
	<path fill="#228C92" d="M24.495,15.218c0-1.939-1.572-3.511-3.511-3.511h-8.978c-1.939,0-3.511,1.572-3.511,3.511v4.178
		c0,1.939,1.572,3.511,3.511,3.511h8.978c1.939,0,3.511-1.572,3.511-3.511V15.218z M19.215,17.62l-4.026,1.992
		c-0.158,0.085-0.694-0.029-0.694-0.208v-4.088c0-0.182,0.541-0.296,0.699-0.206l3.854,2.097
		C19.209,17.298,19.378,17.532,19.215,17.62z"/>
</g>
</svg>
