<?xml version="1.0" encoding="utf-8"?>
<!-- Generator: Adobe Illustrator 17.0.0, SVG Export Plug-In . SVG Version: 6.00 Build 0)  -->
<!DOCTYPE svg PUBLIC "-//W3C//DTD SVG 1.1//EN" "http://www.w3.org/Graphics/SVG/1.1/DTD/svg11.dtd">
<svg version="1.1" id="Capa_1" xmlns="http://www.w3.org/2000/svg" xmlns:xlink="http://www.w3.org/1999/xlink" x="0px" y="0px"
	 width="33.333px" height="34.688px" viewBox="0 0 33.333 34.688" enable-background="new 0 0 33.333 34.688" xml:space="preserve">
<g>
	<circle fill="#FFFFFF" cx="16.667" cy="15.797" r="14.621"/>
	<g>
		<g>
			<circle fill="#228C92" cx="21.205" cy="11.271" r="1.005"/>
			<path fill="#228C92" d="M16.737,11.555c-2.328,0-4.222,1.894-4.222,4.222c0,2.328,1.894,4.222,4.222,4.222
				c2.328,0,4.222-1.894,4.222-4.222C20.959,13.448,19.065,11.555,16.737,11.555z M16.737,18.481c-1.491,0-2.704-1.213-2.704-2.704
				c0-1.491,1.213-2.704,2.704-2.704c1.491,0,2.704,1.213,2.704,2.704C19.441,17.268,18.228,18.481,16.737,18.481z"/>
			<path fill="#228C92" d="M20.089,24.348h-6.844c-2.839,0-5.149-2.31-5.149-5.149v-6.845c0-2.84,2.31-5.149,5.149-5.149h6.844
				c2.839,0,5.15,2.31,5.15,5.149v6.845C25.238,22.038,22.928,24.348,20.089,24.348z M13.244,8.818c-1.95,0-3.537,1.586-3.537,3.536
				v6.845c0,1.95,1.586,3.537,3.537,3.537h6.844c1.95,0,3.537-1.586,3.537-3.537v-6.845c0-1.95-1.587-3.536-3.537-3.536H13.244z"/>
		</g>
	</g>
</g>
</svg>
