<?xml version="1.0" encoding="utf-8"?>
<!-- Generator: Adobe Illustrator 17.0.0, SVG Export Plug-In . SVG Version: 6.00 Build 0)  -->
<!DOCTYPE svg PUBLIC "-//W3C//DTD SVG 1.1//EN" "http://www.w3.org/Graphics/SVG/1.1/DTD/svg11.dtd">
<svg version="1.1" id="Capa_1" xmlns="http://www.w3.org/2000/svg" xmlns:xlink="http://www.w3.org/1999/xlink" x="0px" y="0px"
	 width="33.333px" height="34.688px" viewBox="0 0 33.333 34.688" enable-background="new 0 0 33.333 34.688" xml:space="preserve">
<g>
	<circle fill="#FFFFFF" cx="17.378" cy="18.009" r="14.621"/>
	<path fill="#228C92" d="M8.435,22.733c0-0.093,0-0.187,0-0.28c0.115-0.133,0.236-0.247,0.423-0.284
		c1.472-0.292,2.456-1.23,3.199-2.462c0.624-1.036,0.524-1.273-0.627-1.68c-0.066-0.023-0.134-0.042-0.198-0.069
		c-0.249-0.102-0.495-0.211-0.7-0.39c-0.515-0.448-0.21-1.093,0.397-1.239c0.444-0.107,0.831,0.179,1.262,0.232
		c0.288,0.036,0.403-0.061,0.368-0.368c-0.091-0.79-0.089-1.585-0.052-2.378c0.071-1.513,0.815-2.665,2.075-3.412
		c1.84-1.091,3.764-1.104,5.618-0.017c1.157,0.679,1.904,1.706,2.066,3.084c0.105,0.896,0.063,1.794-0.007,2.691
		c-0.031,0.39,0.049,0.461,0.434,0.371c0.478-0.112,0.879-0.359,1.376-0.14c0.266,0.117,0.498,0.368,0.491,0.659
		c-0.005,0.199-0.121,0.382-0.271,0.513c-0.23,0.2-0.529,0.311-0.808,0.424c-0.216,0.088-0.441,0.155-0.651,0.254
		c-0.435,0.204-0.56,0.473-0.356,0.903c0.704,1.488,1.739,2.618,3.413,3.011c0.204,0.048,0.368,0.131,0.492,0.297
		c0,0.093,0,0.187,0,0.28c-0.159,0.326-0.442,0.506-0.764,0.628c-0.327,0.124-0.656,0.263-1.007,0.285
		c-0.485,0.031-0.74,0.243-0.814,0.748c-0.07,0.481-0.215,0.549-0.705,0.509c-0.116-0.009-0.231-0.031-0.346-0.051
		c-0.959-0.17-1.86-0.073-2.649,0.564c-0.154,0.124-0.325,0.228-0.491,0.336c-1.344,0.872-2.72,0.972-4.124,0.153
		c-0.383-0.223-0.745-0.48-1.117-0.723c-0.307-0.201-0.637-0.313-1.006-0.369c-0.582-0.088-1.139,0.042-1.706,0.105
		c-0.291,0.032-0.572-0.051-0.589-0.352c-0.04-0.725-0.484-0.903-1.094-0.97c-0.284-0.031-0.565-0.147-0.833-0.259
		C8.841,23.215,8.575,23.042,8.435,22.733z"/>
</g>
</svg>
