<?xml version="1.0" encoding="utf-8"?>
<!-- Generator: Adobe Illustrator 17.0.0, SVG Export Plug-In . SVG Version: 6.00 Build 0)  -->
<!DOCTYPE svg PUBLIC "-//W3C//DTD SVG 1.1//EN" "http://www.w3.org/Graphics/SVG/1.1/DTD/svg11.dtd">
<svg version="1.1" id="Capa_1" xmlns="http://www.w3.org/2000/svg" xmlns:xlink="http://www.w3.org/1999/xlink" x="0px" y="0px"
	 width="33.333px" height="34.688px" viewBox="0 0 33.333 34.688" enable-background="new 0 0 33.333 34.688" xml:space="preserve">
<g>
	<path fill="#FFFFFF" d="M31.288,17.344c0-8.075-6.546-14.621-14.621-14.621c-8.075,0-14.621,6.546-14.621,14.621
		c0,7.298,5.347,13.347,12.337,14.444V21.571H10.67v-4.226h3.712v-3.221c0-3.664,2.183-5.689,5.523-5.689
		c1.6,0,3.273,0.286,3.273,0.286v3.598h-1.844c-1.816,0-2.383,1.127-2.383,2.283v2.743h4.055l-0.648,4.226h-3.407v10.217
		C25.941,30.691,31.288,24.642,31.288,17.344z"/>
	<path fill="#228C92" d="M22.358,21.571l0.648-4.226h-4.055v-2.743c0-1.156,0.567-2.283,2.383-2.283h1.844V8.72
		c0,0-1.673-0.286-3.273-0.286c-3.34,0-5.523,2.024-5.523,5.689v3.221H10.67v4.226h3.712v10.217
		c0.744,0.117,1.507,0.178,2.285,0.178c0.777,0,1.54-0.061,2.285-0.178V21.571H22.358z"/>
</g>
</svg>
