<?xml version="1.0" encoding="utf-8"?>
<!-- Generator: Adobe Illustrator 17.0.0, SVG Export Plug-In . SVG Version: 6.00 Build 0)  -->
<!DOCTYPE svg PUBLIC "-//W3C//DTD SVG 1.1//EN" "http://www.w3.org/Graphics/SVG/1.1/DTD/svg11.dtd">
<svg version="1.1" id="Capa_1" xmlns="http://www.w3.org/2000/svg" xmlns:xlink="http://www.w3.org/1999/xlink" x="0px" y="0px"
	 width="33.333px" height="34.688px" viewBox="0 0 33.333 34.688" enable-background="new 0 0 33.333 34.688" xml:space="preserve">
<g>
	<circle fill="#FFFFFF" cx="16.667" cy="17.344" r="14.621"/>
	<path fill="#228C92" d="M10.535,14.621h2.832v9.097h-2.832V14.621z M11.951,10.101c0.906,0,1.639,0.735,1.639,1.638
		c0,0.905-0.734,1.641-1.639,1.641c-0.908,0-1.642-0.736-1.642-1.641C10.31,10.835,11.043,10.101,11.951,10.101"/>
	<path fill="#228C92" d="M15.141,14.621h2.712v1.244h0.037c0.378-0.716,1.301-1.47,2.678-1.47c2.863,0,3.391,1.883,3.391,4.333
		v4.989h-2.826v-4.423c0-1.056-0.021-2.412-1.47-2.412c-1.472,0-1.696,1.149-1.696,2.335v4.5h-2.826V14.621z"/>
</g>
</svg>
