<?xml version="1.0" encoding="utf-8"?>
<!-- Generator: Adobe Illustrator 17.0.0, SVG Export Plug-In . SVG Version: 6.00 Build 0)  -->
<!DOCTYPE svg PUBLIC "-//W3C//DTD SVG 1.1//EN" "http://www.w3.org/Graphics/SVG/1.1/DTD/svg11.dtd">
<svg version="1.1" id="Capa_1" xmlns="http://www.w3.org/2000/svg" xmlns:xlink="http://www.w3.org/1999/xlink" x="0px" y="0px"
	 width="212.195px" height="110.84px" viewBox="0 0 212.195 110.84" enable-background="new 0 0 212.195 110.84"
	 xml:space="preserve">
<g>
	<g>
		<g>
			<path fill="#FFFFFF" d="M82.847,10.004c-3.03,3.787-7.549,5.958-12.397,5.958H48.031c-8.276,0-15.008,6.732-15.008,15.008h3.531
				c0-6.328,5.149-11.476,11.477-11.476H70.45c5.927,0,11.451-2.655,15.154-7.283c3.029-3.787,7.548-5.958,12.397-5.958h7.412V2.72
				h-7.412C92.074,2.72,86.55,5.375,82.847,10.004z"/>
			<path fill="#FFFFFF" d="M162.838,15.962H140.42c-4.849,0-9.368-2.172-12.398-5.958c-3.703-4.629-9.226-7.284-15.154-7.284h-7.412
				v3.531h7.412c4.849,0,9.368,2.172,12.397,5.958c3.704,4.629,9.227,7.283,15.155,7.283h22.418c6.328,0,11.476,5.148,11.476,11.476
				h3.531C177.846,22.694,171.113,15.962,162.838,15.962z"/>
		</g>
		<g>
			<path fill="#FFFFFF" d="M65.417,19.493H54.916c-3.773,0-6.842-3.069-6.842-6.842s3.069-6.842,6.842-6.842h10.501
				c3.773,0,6.842,3.069,6.842,6.842S69.19,19.493,65.417,19.493z M54.916,9.341c-1.825,0-3.311,1.485-3.311,3.311
				s1.485,3.311,3.311,3.311h10.501c1.825,0,3.311-1.485,3.311-3.311s-1.485-3.311-3.311-3.311H54.916z"/>
		</g>
	</g>
	<g>
		<path fill="#FFFFFF" d="M172.227,108.635H38.643c-3.098,0-5.619-2.521-5.619-5.619V92.238h3.531v10.778
			c0,1.151,0.937,2.088,2.088,2.088h133.584c1.151,0,2.088-0.937,2.088-2.088V92.238h3.531v10.778
			C177.846,106.114,175.325,108.635,172.227,108.635z"/>
	</g>
	<g>
		<g>
			<g>
				<g>
					<path fill="#FFFFFF" d="M2.07,70.98V36.934h14.433c1.566,0,3.013,0.328,4.34,0.983c1.327,0.655,2.47,1.519,3.429,2.589
						c0.96,1.071,1.711,2.286,2.254,3.644c0.543,1.359,0.815,2.726,0.815,4.1c0,1.438-0.256,2.837-0.767,4.196
						c-0.511,1.359-1.231,2.565-2.158,3.62c-0.928,1.055-2.046,1.902-3.356,2.542c-1.311,0.64-2.75,0.959-4.316,0.959H8.688V70.98
						H2.07z M8.688,53.765h7.673c1.214,0,2.229-0.495,3.045-1.487c0.815-0.99,1.222-2.333,1.222-4.028
						c0-0.863-0.128-1.638-0.384-2.326c-0.256-0.687-0.592-1.271-1.007-1.75c-0.415-0.479-0.903-0.839-1.463-1.079
						c-0.559-0.24-1.127-0.359-1.702-0.359H8.688V53.765z"/>
				</g>
				<g>
					<path fill="#FFFFFF" d="M70.163,36.934V70.98h-6.57V56.451h-15.44V70.98h-6.618V36.934h6.618v13.762h15.44V36.934H70.163z"/>
				</g>
				<g>
					<path fill="#FFFFFF" d="M165.402,42.736h-10.886V70.98h-6.569V42.736h-10.885v-5.802h28.34V42.736z"/>
				</g>
				<g>
					<path fill="#FFFFFF" d="M192.159,71.22c-2.494,0-4.755-0.487-6.786-1.463c-2.03-0.975-3.773-2.27-5.227-3.884
						c-1.455-1.614-2.582-3.46-3.38-5.538c-0.799-2.078-1.199-4.204-1.199-6.378c0-2.27,0.423-4.443,1.271-6.521
						c0.847-2.078,2.014-3.916,3.501-5.514c1.486-1.598,3.253-2.869,5.299-3.812c2.046-0.943,4.267-1.415,6.666-1.415
						c2.461,0,4.706,0.504,6.737,1.51c2.029,1.007,3.764,2.326,5.203,3.956c1.438,1.63,2.557,3.485,3.356,5.562
						c0.799,2.078,1.199,4.189,1.199,6.33c0,2.27-0.416,4.436-1.247,6.498c-0.832,2.062-1.983,3.884-3.453,5.467
						c-1.471,1.582-3.23,2.846-5.275,3.788C196.779,70.749,194.557,71.22,192.159,71.22z M182.28,53.957
						c0,1.471,0.223,2.894,0.672,4.268c0.447,1.375,1.095,2.589,1.942,3.644c0.847,1.055,1.885,1.903,3.117,2.542
						c1.23,0.64,2.629,0.959,4.196,0.959c1.598,0,3.013-0.327,4.244-0.983c1.23-0.655,2.269-1.526,3.117-2.614
						c0.847-1.086,1.487-2.309,1.918-3.668c0.432-1.359,0.647-2.741,0.647-4.148c0-1.47-0.232-2.893-0.695-4.268
						c-0.464-1.374-1.12-2.589-1.966-3.644c-0.848-1.055-1.886-1.895-3.117-2.518c-1.231-0.623-2.614-0.935-4.148-0.935
						c-1.598,0-3.021,0.328-4.268,0.983c-1.247,0.656-2.286,1.519-3.117,2.59c-0.831,1.071-1.462,2.286-1.894,3.644
						C182.497,51.168,182.28,52.55,182.28,53.957z"/>
				</g>
			</g>
			<g>
				<path fill="#FFFFFF" d="M105.777,80.854c-3.76,0-7.576-0.791-11.209-2.464c-6.526-3.005-11.492-8.371-13.982-15.111
					c-2.49-6.739-2.206-14.045,0.799-20.572c6.204-13.473,22.211-19.384,35.683-13.183c6.526,3.005,11.492,8.372,13.982,15.111
					c2.49,6.74,2.206,14.045-0.799,20.572C125.72,75.046,115.959,80.854,105.777,80.854z M105.852,31.473
					c-8.512,0-16.67,4.854-20.458,13.08c-2.511,5.455-2.748,11.563-0.667,17.196c2.081,5.633,6.232,10.119,11.688,12.631
					c11.258,5.185,24.641,0.243,29.827-11.02c2.511-5.455,2.748-11.563,0.667-17.196c-2.081-5.633-6.232-10.119-11.688-12.631
					C112.186,32.136,108.994,31.473,105.852,31.473z"/>
			</g>
		</g>
		<g>
			<path fill="#FFFFFF" d="M87.383,44.65c-0.878,1.755-1.522,3.665-1.881,5.697c-0.889,5.038,0.118,9.971,2.508,14.069
				l14.555-17.086L87.383,44.65z"/>
			<path fill="#FFFFFF" d="M104.879,33.202c-7.149,0.368-13.587,4.429-17.042,10.59l22.225,3.922L104.879,33.202z"/>
			<path fill="#FFFFFF" d="M124.548,63.266c0.878-1.755,1.522-3.665,1.881-5.697c0.888-5.034-0.117-9.963-2.503-14.06l-14.56,17.077
				L124.548,63.266z"/>
			<path fill="#FFFFFF" d="M123.418,42.682c-3.027-4.682-7.917-8.142-13.841-9.188c-1.252-0.221-2.498-0.324-3.727-0.319
				l7.58,21.222L123.418,42.682z"/>
			<path fill="#FFFFFF" d="M88.518,65.242c3.027,4.678,7.915,8.134,13.835,9.179c1.334,0.235,2.66,0.336,3.965,0.316l-7.812-21.221
				L88.518,65.242z"/>
			<path fill="#FFFFFF" d="M107.289,74.698c7.054-0.444,13.388-4.482,16.804-10.575l-22.135-3.907L107.289,74.698z"/>
		</g>
	</g>
	
		<text transform="matrix(1 0 0 1 84.9086 96.5989)" fill="#FFFFFF" stroke="#FFFFFF" stroke-miterlimit="10" font-family="'Raleway-Light'" font-size="12" letter-spacing="2">DAVID</text>
</g>
</svg>
